
<?xml version="1.0" encoding="UTF-8"?>
<svg enable-background="new 0 0 25 25" version="1.1" viewBox="0 0 25 25" xml:space="preserve" xmlns="http://www.w3.org/2000/svg">
<style type="text/css">
	.st0{display:none;}
	.st1{display:inline;fill:#F68420;}
	.st2{fill:#F68420;}
</style>
<g class="st0">
	<path class="st1" d="M1.7,13.7h1.4c0.4,0,0.7-0.3,0.7-0.7s-0.3-0.7-0.7-0.7H1.7C1.3,12.3,1,12.6,1,13S1.3,13.7,1.7,13.7z"/>
	<path class="st1" d="m23 13c0-0.4-0.3-0.7-0.7-0.7h-1.4c-0.4 0-0.7 0.3-0.7 0.7s0.3 0.7 0.7 0.7h1.4c0.4 0 0.7-0.3 0.7-0.7z"/>
	<path class="st1" d="m11.3 21.8v1.4c0 0.4 0.3 0.7 0.7 0.7s0.7-0.3 0.7-0.7v-1.4c0-0.4-0.3-0.7-0.7-0.7s-0.7 0.4-0.7 0.7z"/>
	<path class="st1" d="m12.7 4.2v-1.5c0-0.4-0.3-0.7-0.7-0.7s-0.7 0.3-0.7 0.7v1.4c0 0.4 0.3 0.7 0.7 0.7 0.4 0.1 0.7-0.3 0.7-0.6z"/>
	<path class="st1" d="m16.1 20c-0.3 0.2-0.5 0.6-0.3 1l0.7 1.2c0.2 0.3 0.6 0.5 1 0.3 0.3-0.2 0.5-0.6 0.3-1l-0.8-1.2c-0.2-0.3-0.6-0.5-0.9-0.3z"/>
	<path class="st1" d="M7.9,6c0.3-0.2,0.5-0.6,0.3-1L7.5,3.7c-0.2-0.3-0.6-0.5-1-0.3C6.2,3.7,6,4.1,6.2,4.5L7,5.7   C7.2,6,7.6,6.2,7.9,6z"/>
	<path class="st1" d="m19.3 18 1.2 0.7c0.3 0.2 0.8 0.1 1-0.3 0.2-0.3 0.1-0.8-0.3-1l-1.2-0.6c-0.3-0.2-0.8-0.1-1 0.3-0.2 0.3 0 0.7 0.3 0.9z"/>
	<path class="st1" d="M4.7,8L3.5,7.2c-0.4-0.2-0.8,0-1,0.3s-0.1,0.8,0.3,1L4,9.2c0.3,0.2,0.8,0.1,1-0.3C5.2,8.6,5,8.2,4.7,8z"/>
	<path class="st1" d="m20 9.2 1.2-0.7c0.3-0.2 0.5-0.6 0.3-1-0.2-0.3-0.6-0.5-1-0.3l-1.2 0.8c-0.3 0.2-0.5 0.6-0.3 1 0.2 0.3 0.7 0.4 1 0.2z"/>
	<path class="st1" d="m4 16.8-1.2 0.7c-0.3 0.2-0.5 0.6-0.3 1 0.2 0.3 0.6 0.5 1 0.3l1.2-0.8c0.3-0.2 0.5-0.6 0.3-1-0.2-0.3-0.7-0.4-1-0.2z"/>
	<path class="st1" d="m17 5.7 0.7-1.2c0.2-0.3 0.1-0.8-0.3-1-0.3-0.2-0.8-0.1-1 0.3l-0.6 1.2c-0.2 0.3-0.1 0.8 0.3 1 0.3 0.2 0.7 0 0.9-0.3z"/>
	<path class="st1" d="m7 20.3-0.7 1.2c-0.2 0.3-0.1 0.8 0.3 1 0.3 0.2 0.8 0.1 1-0.3l0.6-1.2c0.2-0.3 0.1-0.8-0.3-1-0.3-0.2-0.7 0-0.9 0.3z"/>
	<path class="st1" d="m12 6.3c-3.7 0-6.7 3-6.7 6.7s3 6.7 6.7 6.7 6.7-3 6.7-6.7-3-6.7-6.7-6.7zm0 12c-2.9 0-5.3-2.4-5.3-5.3s2.4-5.3 5.3-5.3 5.3 2.4 5.3 5.3-2.4 5.3-5.3 5.3z"/>
	<path class="st1" d="m12 9.2c-2.1 0-3.8 1.7-3.8 3.8 0 0.4 0.3 0.7 0.7 0.7s0.7-0.3 0.7-0.7c0-1.3 1.1-2.4 2.4-2.4 0.4 0 0.7-0.3 0.7-0.7s-0.3-0.7-0.7-0.7z"/>
</g>
<path class="st2" d="M1.4,13.6H3c0.4,0,0.8-0.4,0.8-0.8S3.4,12,3,12H1.4c-0.4,0-0.8,0.4-0.8,0.8S1,13.6,1.4,13.6z"/>
<path class="st2" d="m25 12.8c0-0.4-0.4-0.8-0.8-0.8h-1.6c-0.4 0-0.8 0.4-0.8 0.8s0.4 0.8 0.8 0.8h1.6c0.4 0 0.8-0.4 0.8-0.8z"/>
<path class="st2" d="M12,22.6v1.6c0,0.4,0.4,0.8,0.8,0.8s0.8-0.4,0.8-0.8v-1.6c0-0.4-0.4-0.8-0.8-0.8S12,22.2,12,22.6z"/>
<path class="st2" d="M13.6,3V1.4c0-0.4-0.4-0.8-0.8-0.8S12,1,12,1.4V3c0,0.4,0.4,0.8,0.8,0.8S13.6,3.4,13.6,3z"/>
<path class="st2" d="m17.3 20.6c-0.4 0.2-0.5 0.7-0.3 1.1l0.8 1.4c0.2 0.4 0.7 0.5 1.1 0.3s0.5-0.7 0.3-1.1l-0.8-1.4c-0.2-0.4-0.7-0.5-1.1-0.3z"/>
<path class="st2" d="M8.3,5c0.4-0.2,0.5-0.7,0.3-1.1L7.8,2.5C7.6,2.2,7.1,2,6.7,2.2C6.3,2.5,6.2,2.9,6.4,3.3l0.8,1.4  C7.4,5.1,7.9,5.2,8.3,5z"/>
<path class="st2" d="m20.9 18.4 1.4 0.8c0.4 0.2 0.9 0.1 1.1-0.3s0.1-0.9-0.3-1.1l-1.4-0.8c-0.4-0.2-0.9-0.1-1.1 0.3s-0.1 0.9 0.3 1.1z"/>
<path class="st2" d="m4.7 7.2-1.4-0.8c-0.4-0.2-0.8-0.1-1.1 0.3-0.2 0.4 0 0.9 0.3 1.1l1.4 0.8c0.4 0.2 0.9 0.1 1.1-0.3s0.1-0.9-0.3-1.1z"/>
<path class="st2" d="m21.7 8.6 1.4-0.8c0.4-0.2 0.5-0.7 0.3-1.1s-0.7-0.5-1.1-0.3l-1.4 0.8c-0.4 0.2-0.5 0.7-0.3 1.1s0.7 0.5 1.1 0.3z"/>
<path class="st2" d="m3.9 17-1.4 0.8c-0.3 0.2-0.5 0.7-0.3 1.1s0.7 0.5 1.1 0.3l1.4-0.8c0.4-0.2 0.5-0.7 0.3-1.1s-0.7-0.5-1.1-0.3z"/>
<path class="st2" d="m18.4 4.7 0.8-1.4c0.2-0.4 0.1-0.9-0.3-1.1s-0.9 0-1.1 0.3l-0.8 1.4c-0.2 0.4-0.1 0.9 0.3 1.1s0.9 0.1 1.1-0.3z"/>
<path class="st2" d="m7.2 20.9-0.8 1.4c-0.2 0.4-0.1 0.9 0.3 1.1s0.9 0.1 1.1-0.3l0.8-1.4c0.2-0.4 0.1-0.9-0.3-1.1s-0.9-0.1-1.1 0.3z"/>
<path class="st2" d="m12.8 5.4c-4.1 0-7.4 3.3-7.4 7.4s3.3 7.4 7.4 7.4 7.4-3.3 7.4-7.4-3.3-7.4-7.4-7.4zm0 13.2c-3.2 0-5.8-2.6-5.8-5.8s2.6-5.8 5.8-5.8 5.8 2.6 5.8 5.8-2.6 5.8-5.8 5.8z"/>
<path class="st2" d="m12.8 8.6c-2.3 0-4.2 1.9-4.2 4.2 0 0.4 0.4 0.8 0.8 0.8s0.8-0.4 0.8-0.8c0-1.5 1.2-2.7 2.7-2.7 0.4 0 0.8-0.4 0.8-0.8s-0.5-0.7-0.9-0.7z"/>
</svg>
