<?xml version="1.0" encoding="utf-8"?>
<!-- Generator: Adobe Illustrator 21.1.0, SVG Export Plug-In . SVG Version: 6.00 Build 0)  -->
<svg version="1.1" id="Layer_1" xmlns="http://www.w3.org/2000/svg" xmlns:xlink="http://www.w3.org/1999/xlink" x="0px" y="0px"
	 viewBox="0 0 63 29" style="enable-background:new 0 0 63 29;" xml:space="preserve">
<style type="text/css">
	.st0{opacity:0.52;fill:none;stroke:#000000;stroke-width:0.75;stroke-miterlimit:10;}
	.st1{opacity:0.52;fill:#9E9E9E;}
	.st2{opacity:0.52;}
	.st3{fill:#9E9E9E;}
	.st4{opacity:0.52;fill:#FFFFFF;}
	.st5{opacity:0.52;fill:none;stroke:#FFFFFF;stroke-width:0.5;stroke-miterlimit:10;}
</style>
<path class="st0" d="M42.7,15.2"/>
<path class="st1" d="M13.8,3.1c-6.1,0-11.1,5-11.1,11.1s5,11.1,11.1,11.1s11.1-5,11.1-11.1S19.9,3.1,13.8,3.1z M14.8,21.5v2.4h-2.3
	v-2.2c-1.6-0.1-3.1-0.5-3.9-1L9.3,18c1,0.5,2.4,1,3.8,1c1.3,0,2.3-0.5,2.3-1.4c0-0.9-0.8-1.5-2.4-2c-2.4-0.9-4.2-2-4.2-4.3
	c0-2,1.5-3.7,3.9-4.1V5H15v2c1.6,0.1,2.6,0.4,3.4,0.8l-0.7,2.6c-0.6-0.3-1.7-0.8-3.3-0.8c-1.5,0-2,0.6-2,1.3c0,0.8,0.8,1.2,2.8,2
	c2.6,0.9,3.7,2.2,3.7,4.3C18.9,19.3,17.4,21,14.8,21.5z"/>
<g class="st2">
	<path class="st3" d="M48.9,13.1c0.9,0,1.4-0.1,1.8-0.2c0.3-0.1,0.6-0.3,0.8-0.5c0.2-0.2,0.3-0.6,0.3-0.9c0-0.4-0.1-0.7-0.3-0.9
		c-0.2-0.2-0.5-0.4-0.8-0.5c-0.3,0-1-0.1-1.9-0.1h-1.6l0.1,3.1H48.9z"/>
	<path class="st3" d="M50.8,15.2c-0.4-0.1-1-0.2-1.8-0.2h-1.8v2.9v0.8l0.2,0.2C47.6,19,47.7,19,48,19h1c0.7,0,1.1,0,1.5-0.1
		c0.4-0.2,0.7-0.4,1-0.7s0.4-0.7,0.4-1.3c0-0.5-0.1-0.7-0.3-1C51.5,15.6,51.2,15.3,50.8,15.2z"/>
	<path class="st3" d="M48.8,3.2c-6.1,0-11.1,5-11.1,11.1s5,11.1,11.1,11.1s11.1-5,11.1-11.1S54.9,3.2,48.8,3.2z M55.5,17.1
		c0,0.8-0.2,1.5-0.6,2c-0.4,0.6-1.1,1.1-1.9,1.4c-0.3,0.1-0.5,0.1-1,0.2v2.5h-2.4V21H48v2.2h-2.4V21h-3.7v-1.8h0.5
		c0.3,0,0.6,0,0.7-0.1c0.2-0.1,0.2-0.1,0.4-0.3c0.1-0.2,0.1-0.4,0.1-0.8v-7.4c0-0.5,0-0.7-0.1-0.8c-0.1-0.1-0.1-0.1-0.3-0.2
		c-0.1-0.1-0.3-0.1-0.7-0.1H42V7.7h3.7V5.5h2.4v2.2h1.6V5.5h2.5v2.4c0.4,0,0.8,0.2,1.1,0.3c0.6,0.2,1,0.6,1.4,1.1
		c0.3,0.4,0.5,1.1,0.5,1.6s-0.1,0.9-0.3,1.3c-0.2,0.4-0.4,0.8-0.8,1.1c-0.4,0.4-0.9,0.6-1.5,0.8c0.7,0.2,1.2,0.3,1.5,0.5
		c0.4,0.2,0.8,0.7,1.1,1.1C55.5,16.3,55.6,16.7,55.5,17.1z"/>
</g>
<polygon class="st4" points="24.8,1.8 25.3,6.8 20.7,4.6 23.3,4.2 "/>
<polygon class="st4" points="39.6,27.7 38.2,22.9 43.1,24.2 40.6,25.1 "/>
<path class="st4" d="M14.6,27.4c-7.2,0-13-5.8-13-13s6-12.8,13.2-12.8c3.9,0,7.7,1.5,10.1,4.3C22.4,2.7,18.4,0.6,14,0.6
	C6.3,0.6,0.1,6.8,0.1,14.5S6.3,28.4,14,28.4c4.4,0,8.4-2.1,10.9-5.3C22.5,25.8,18.6,27.4,14.6,27.4z"/>
<path class="st4" d="M48.4,27.1c7.2,0,13-5.8,13-13s-6-12.7-13.2-12.7c-3.9,0-7.1,1.1-9.5,3.9c2.5-3.2,5.9-4.9,10.3-4.9
	c7.7,0,13.9,6.2,13.9,13.9S56.7,28.2,49,28.2c-4.4,0-8.4-2.1-10.9-5.3C40.5,25.5,44.4,27.1,48.4,27.1z"/>
<path class="st1" d="M32.3,23.2c-0.4,0.2-1.1,0.3-2,0.3c-2.1,0-3.2-1.1-3.2-3.3v-7.5h-1.6v-2.2h1.6V8.4l3-0.9v2.9h2.2v2.3h-2.2v7
	c0,1,0.4,1.5,1.2,1.5c0.3,0,0.6-0.1,1-0.3V23.2z"/>
<path class="st1" d="M36.9,23.3h-3V10.5h3V23.3z"/>
<polygon class="st5" points="38.4,5.4 36.1,4.2 33.9,5.7 34,8.2 36.4,9.4 38.5,8.1 "/>
<polyline class="st5" points="36.1,4.2 36.1,6.8 38.5,8.1 "/>
<line class="st5" x1="34" y1="8.2" x2="36.1" y2="6.8"/>
</svg>
